:SAMPLES-PER-SECOND 30
:FULLY-SPECIFIED
:DEGREES
190
root  -68.6927 38.9954 0.840405 -157.335 -76.6292 149.25
RightUpLeg  3.82909 4.03434 -12.3436
RightLeg  51.1848 10.7955 13.7157
RightFoot  -1.75444 -1.38137 16.3834
RightToes  -3.0268e-009 0 -3.6325e-017
Spine  2.33294 2.66746 -4.43633
Spine1  7.58183 3.30246 -4.77098
HEad  -12.3108 6.45026 1.21769
LeftShoulder1  -0.669714 5.09019 -36.0153
LeftArm  1.71922 0.988568 -37.2838
LeftForeArm  39.8248 -8.52356 -10.2344
LeftHand  -0.39364 12.2352 -5.31131
RightShoulder  -1.36081 -6.88361 33.7054
RightArm  16.8483 -7.58132 43.2939
RightForeArm  26.9349 4.03468 8.20895
RightHand  0.043016 0.131215 0.887529
LeftUpLeg  -14.9708 4.71766 -6.75185
LeftLeg  19.5661 6.31546 2.47276
LeftFoot  3.24863 -0.64485 4.87848
LeftToes  2.52475e-009 -1.26109e-010 3.16044e-011
191
root  -69.4982 39.0627 0.941204 -158.45 -75.5987 149.537
RightUpLeg  -0.960141 4.99001 -13.365
RightLeg  58.4366 8.75944 14.5414
RightFoot  6.15689 -2.44599 16.0831
RightToes  -3.0268e-009 0 -3.6325e-017
Spine  3.57052 2.30762 -5.52421
Spine1  8.16351 2.68178 -4.83012
HEad  -13.9222 8.22136 0.55092
LeftShoulder1  -0.690555 5.14747 -35.8095
LeftArm  2.66537 -1.63741 -37.8286
LeftForeArm  39.0916 -9.97724 -9.82572
LeftHand  -0.445696 12.2225 -6.19271
RightShoulder  -1.44061 -7.03961 34.1939
RightArm  19.2277 -10.3957 41.0351
RightForeArm  26.0589 6.14182 8.71969
RightHand  0.0555692 0.367745 1.11687
LeftUpLeg  -13.1075 4.94282 -7.25912
LeftLeg  20.3998 7.26181 2.80632
LeftFoot  1.2917 -0.550644 4.90084
LeftToes  2.52475e-009 -1.26109e-010 3.16044e-011
192
root  -70.2659 39.2068 0.994933 -160.201 -75.6747 150.887
RightUpLeg  -5.03765 4.5578 -13.4555
RightLeg  62.8643 6.01848 12.0861
RightFoot  4.30234 -2.04819 14.9802
RightToes  -3.0268e-009 0 -3.6325e-017
Spine  4.54769 1.73425 -6.61116
Spine1  8.24378 1.55014 -3.38882
HEad  -14.8913 9.12828 -0.200372
LeftShoulder1  -0.634504 5.00851 -35.9517
LeftArm  2.88566 -4.10739 -38.3146
LeftForeArm  37.0223 -10.6343 -9.57552
LeftHand  -0.381676 12.1401 -5.01624
RightShoulder  -1.43435 -7.0845 33.5228
RightArm  21.3824 -13.6475 39.3831
RightForeArm  23.9032 9.23645 8.37885
RightHand  0.0358794 1.60938 0.444295
LeftUpLeg  -11.4323 4.95998 -7.13407
LeftLeg  20.6216 7.39939 2.83778
LeftFoot  -0.091641 -0.497627 5.05677
LeftToes  2.52475e-009 -1.26109e-010 3.16044e-011
193
root  -71.0108 39.4052 1.01504 -160.802 -76.3126 151.114
RightUpLeg  -8.51437 3.4433 -13.3754
RightLeg  64.6726 4.14137 8.95516
RightFoot  2.32371 -1.46131 12.3261
RightToes  -3.0268e-009 0 -3.6325e-017
Spine  5.53432 0.955596 -8.26474
Spine1  7.89264 0.175418 -1.31457
HEad  -15.346 9.94263 -0.182661
LeftShoulder1  -0.644343 5.05524 -35.3577
LeftArm  3.48576 -6.09498 -39.202
LeftForeArm  33.7309 -11.8057 -9.09144
LeftHand  -0.14216 10.6432 -1.88281
RightShoulder  -1.52178 -7.26959 33.8832
RightArm  24.6817 -15.9972 37.0389
RightForeArm  20.6691 12.2388 7.69901
RightHand  0.0690958 1.70896 0.978089
LeftUpLeg  -9.25225 4.55594 -7.02754
LeftLeg  19.7203 7.25965 2.61416
LeftFoot  -0.958749 -0.4874 5.42456
LeftToes  2.52475e-009 -1.26109e-010 3.16044e-011
194
root  -71.6697 39.5837 0.913132 -161.424 -77.3903 151.62
RightUpLeg  -11.4466 2.6889 -12.4028
RightLeg  63.7065 2.86855 5.77448
RightFoot  2.08567 -1.41908 12.1379
RightToes  -3.0268e-009 0 -3.6325e-017
Spine  6.48495 0.371471 -10.5517
Spine1  7.34633 -1.23158 1.73764
HEad  -15.5196 10.7435 0.246293
LeftShoulder1  -0.724909 5.27358 -34.7544
LeftArm  5.05447 -8.24033 -40.0787
LeftForeArm  30.1879 -13.7549 -8.20683
LeftHand  -0.161924 10.4546 -2.29286
RightShoulder  -1.4973 -7.22053 33.7546
RightArm  25.896 -17.8833 35.6287
RightForeArm  17.3924 13.8563 7.06013
RightHand  0.0521555 2.3313 0.593816
LeftUpLeg  -7.56237 5.17681 -6.36416
LeftLeg  18.9943 5.77276 1.84967
LeftFoot  -1.73886 -0.46323 5.63168
LeftToes  2.52475e-009 -1.26109e-010 3.16044e-011
195
root  -72.2734 39.6805 0.871246 -160.385 -77.9129 150.666
RightUpLeg  -14.285 2.67636 -12.2561
RightLeg  60.736 2.83021 4.95646
RightFoot  1.08696 -1.32151 12.1485
RightToes  -3.0268e-009 0 -3.6325e-017
Spine  7.55903 0.155465 -11.8081
Spine1  6.35745 -1.81164 2.93912
HEad  -14.939 10.9133 1.07833
LeftShoulder1  -0.629411 5.07401 -33.9303
LeftArm  8.07153 -9.40563 -41.1977
LeftForeArm  25.9269 -16.8986 -6.6138
LeftHand  -0.156639 10.5774 -2.13023
RightShoulder  -1.46822 -7.17333 33.4831
RightArm  24.4441 -19.4827 35.3056
RightForeArm  16.1778 13.9421 6.75154
RightHand  0.00807081 2.0054 -0.0247233
LeftUpLeg  -6.45795 5.28074 -6.36
LeftLeg  18.648 5.25359 1.47926
LeftFoot  -2.47587 -0.422005 5.63377
LeftToes  2.52475e-009 -1.26109e-010 3.16044e-011
196
root  -72.8845 39.7744 0.812291 -158.161 -78.2831 149.097
RightUpLeg  -17.0287 3.81943 -12.289
RightLeg  55.8658 3.72553 5.492
RightFoot  -0.472694 -1.17542 12.3458
RightToes  -3.0268e-009 0 -3.6325e-017
Spine  7.53108 -0.0632973 -11.9735
Spine1  6.14358 -1.81063 2.57972
HEad  -14.9176 10.7378 2.0967
LeftShoulder1  -0.606255 5.04375 -33.2104
LeftArm  10.4546 -10.7861 -42.0938
LeftForeArm  22.7514 -20.6093 -4.67983
LeftHand  -0.17175 9.74583 -3.00831
RightShoulder  -1.55362 -7.33347 34.0395
RightArm  21.676 -19.7015 35.3387
RightForeArm  17.6127 12.8322 6.67725
RightHand  0.0549853 1.46769 0.796604
LeftUpLeg  -5.93966 5.152 -6.54795
LeftLeg  18.1856 5.00057 1.21035
LeftFoot  -2.86362 -0.424213 5.94942
LeftToes  2.52475e-009 -1.26109e-010 3.16044e-011
197
root  -73.4908 39.8672 0.663388 -156.288 -80.3092 147.153
RightUpLeg  -17.2667 5.04779 -11.5898
RightLeg  49.0316 5.20289 6.05049
RightFoot  -2.86761 -1.04051 13.6614
RightToes  -3.0268e-009 0 -3.6325e-017
Spine  7.99615 -0.533205 -11.8788
Spine1  6.31915 -2.3728 2.96311
HEad  -14.7293 10.0326 2.96438
LeftShoulder1  -0.569386 4.95828 -32.9985
LeftArm  10.8118 -11.8634 -42.4544
LeftForeArm  21.7099 -24.5805 -3.98766
LeftHand  -0.166786 9.58645 -2.84762
RightShoulder  -1.57576 -7.36192 34.3099
RightArm  18.805 -19.3486 36.064
RightForeArm  18.7189 10.9995 6.76821
RightHand  0.0226873 1.68603 0.219951
LeftUpLeg  -4.84234 5.38389 -5.79876
LeftLeg  18.3035 2.63814 0.602165
LeftFoot  -3.73478 -0.370044 5.90155
LeftToes  2.52475e-009 -1.26109e-010 3.16044e-011
